<svg xmlns="http://www.w3.org/2000/svg" xmlns:xlink="http://www.w3.org/1999/xlink" width="500" zoomAndPan="magnify" viewBox="0 0 375 374.999991" height="500" preserveAspectRatio="xMidYMid meet" version="1.0"><defs><clipPath id="0ba74818c4"><path d="M 18.925781 18.925781 L 356.074219 18.925781 L 356.074219 356.074219 L 18.925781 356.074219 Z M 18.925781 18.925781 " clip-rule="nonzero"/></clipPath><clipPath id="1dac101f54"><path d="M 187.5 18.925781 C 94.398438 18.925781 18.925781 94.398438 18.925781 187.5 C 18.925781 280.601562 94.398438 356.074219 187.5 356.074219 C 280.601562 356.074219 356.074219 280.601562 356.074219 187.5 C 356.074219 94.398438 280.601562 18.925781 187.5 18.925781 Z M 187.5 18.925781 " clip-rule="nonzero"/></clipPath><clipPath id="e4391c9098"><path d="M 0.925781 0.925781 L 338.074219 0.925781 L 338.074219 338.074219 L 0.925781 338.074219 Z M 0.925781 0.925781 " clip-rule="nonzero"/></clipPath><clipPath id="f938043591"><path d="M 169.5 0.925781 C 76.398438 0.925781 0.925781 76.398438 0.925781 169.5 C 0.925781 262.601562 76.398438 338.074219 169.5 338.074219 C 262.601562 338.074219 338.074219 262.601562 338.074219 169.5 C 338.074219 76.398438 262.601562 0.925781 169.5 0.925781 Z M 169.5 0.925781 " clip-rule="nonzero"/></clipPath><clipPath id="a181096a20"><rect x="0" width="339" y="0" height="339"/></clipPath><clipPath id="5be6b35b1a"><path d="M 72.71875 35.460938 L 339.210938 35.460938 L 339.210938 302.761719 L 72.71875 302.761719 Z M 72.71875 35.460938 " clip-rule="nonzero"/></clipPath><clipPath id="9289612f94"><path d="M 76 35.460938 L 339.210938 35.460938 L 339.210938 339.210938 L 76 339.210938 Z M 76 35.460938 " clip-rule="nonzero"/></clipPath><clipPath id="45ce85959b"><path d="M 72.71875 72.71875 L 339.210938 72.71875 L 339.210938 339.210938 L 72.71875 339.210938 Z M 72.71875 72.71875 " clip-rule="nonzero"/></clipPath><clipPath id="4c14ab325b"><path d="M 35.460938 76 L 339.210938 76 L 339.210938 339.210938 L 35.460938 339.210938 Z M 35.460938 76 " clip-rule="nonzero"/></clipPath><clipPath id="fafe1165e3"><path d="M 35.460938 72.71875 L 302.761719 72.71875 L 302.761719 339.210938 L 35.460938 339.210938 Z M 35.460938 72.71875 " clip-rule="nonzero"/></clipPath><clipPath id="5d17c82e8b"><path d="M 35.460938 35.460938 L 298.714844 35.460938 L 298.714844 339.210938 L 35.460938 339.210938 Z M 35.460938 35.460938 " clip-rule="nonzero"/></clipPath><clipPath id="95586993c6"><path d="M 35.460938 35.460938 L 303 35.460938 L 303 303 L 35.460938 303 Z M 35.460938 35.460938 " clip-rule="nonzero"/></clipPath><clipPath id="6044b0feb4"><path d="M 35.460938 35.460938 L 339.210938 35.460938 L 339.210938 298.714844 L 35.460938 298.714844 Z M 35.460938 35.460938 " clip-rule="nonzero"/></clipPath></defs><g clip-path="url(#0ba74818c4)"><g clip-path="url(#1dac101f54)"><g transform="matrix(1, 0, 0, 1, 18, 18)"><g clip-path="url(#a181096a20)"><g clip-path="url(#e4391c9098)"><g clip-path="url(#f938043591)"><path fill="#602ff7" d="M 0.925781 0.925781 L 338.074219 0.925781 L 338.074219 338.074219 L 0.925781 338.074219 Z M 0.925781 0.925781 " fill-opacity="1" fill-rule="nonzero"/></g></g></g></g></g></g><path fill="#ec4899" d="M 292.242188 143.523438 C 275.464844 160.300781 204.28125 204.285156 187.5 187.503906 C 170.726562 170.726562 214.703125 99.542969 231.480469 82.761719 C 248.261719 65.988281 275.464844 65.988281 292.242188 82.761719 C 309.019531 99.542969 309.019531 126.742188 292.242188 143.523438 " fill-opacity="1" fill-rule="nonzero"/><g clip-path="url(#5be6b35b1a)"><path stroke-linecap="butt" transform="matrix(0.0810011, 0, 0, -0.0810011, 35.459339, 339.545543)" fill="none" stroke-linejoin="miter" d="M 3170.115621 2419.993173 C 2962.990729 2212.868282 2084.19285 1669.858672 1877.019734 1877.031788 C 1669.943068 2084.156679 2212.856228 2962.954558 2419.981119 3170.127674 C 2627.154235 3377.204341 2962.990729 3377.204341 3170.115621 3170.127674 C 3377.240512 2962.954558 3377.240512 2627.166289 3170.115621 2419.993173 Z M 3170.115621 2419.993173 " stroke="#ffffff" stroke-width="96.766998" stroke-opacity="1" stroke-miterlimit="10"/></g><path fill="#ec4899" d="M 292.664062 230.464844 C 268.933594 230.464844 187.5 211.230469 187.5 187.503906 C 187.5 163.777344 268.933594 144.539062 292.664062 144.539062 C 316.390625 144.539062 335.625 163.777344 335.625 187.503906 C 335.625 211.230469 316.390625 230.464844 292.664062 230.464844 " fill-opacity="1" fill-rule="nonzero"/><g clip-path="url(#9289612f94)"><path stroke-linecap="butt" transform="matrix(0.0810011, 0, 0, -0.0810011, 35.459339, 339.545543)" fill="none" stroke-linejoin="miter" d="M 3175.323883 1346.657037 C 2882.359107 1346.657037 1877.019734 1584.115236 1877.019734 1877.031788 C 1877.019734 2169.948339 2882.359107 2407.454763 3175.323883 2407.454763 C 3468.240435 2407.454763 3705.698634 2169.948339 3705.698634 1877.031788 C 3705.698634 1584.115236 3468.240435 1346.657037 3175.323883 1346.657037 Z M 3175.323883 1346.657037 " stroke="#ffffff" stroke-width="96.766998" stroke-opacity="1" stroke-miterlimit="10"/></g><path fill="#ec4899" d="M 231.480469 292.242188 C 214.703125 275.464844 170.726562 204.285156 187.5 187.503906 C 204.28125 170.726562 275.464844 214.707031 292.242188 231.484375 C 309.019531 248.261719 309.019531 275.464844 292.242188 292.242188 C 275.464844 309.023438 248.261719 309.023438 231.480469 292.242188 " fill-opacity="1" fill-rule="nonzero"/><g clip-path="url(#45ce85959b)"><path stroke-linecap="butt" transform="matrix(0.0810011, 0, 0, -0.0810011, 35.459339, 339.545543)" fill="none" stroke-linejoin="miter" d="M 2419.981119 583.984126 C 2212.856228 791.109017 1669.943068 1669.858672 1877.019734 1877.031788 C 2084.19285 2084.156679 2962.990729 1541.195293 3170.115621 1334.070402 C 3377.240512 1126.945511 3377.240512 791.109017 3170.115621 583.984126 C 2962.990729 376.81101 2627.154235 376.81101 2419.981119 583.984126 Z M 2419.981119 583.984126 " stroke="#ffffff" stroke-width="96.766998" stroke-opacity="1" stroke-miterlimit="10"/></g><path fill="#ec4899" d="M 144.539062 292.664062 C 144.539062 268.933594 163.773438 187.503906 187.5 187.503906 C 211.230469 187.503906 230.464844 268.933594 230.464844 292.664062 C 230.464844 316.390625 211.230469 335.625 187.5 335.625 C 163.773438 335.625 144.539062 316.390625 144.539062 292.664062 " fill-opacity="1" fill-rule="nonzero"/><g clip-path="url(#4c14ab325b)"><path stroke-linecap="butt" transform="matrix(0.0810011, 0, 0, -0.0810011, 35.459339, 339.545543)" fill="none" stroke-linejoin="miter" d="M 1346.644984 578.775863 C 1346.644984 871.740639 1584.103183 1877.031788 1877.019734 1877.031788 C 2169.98451 1877.031788 2407.442709 871.740639 2407.442709 578.775863 C 2407.442709 285.859312 2169.98451 48.401113 1877.019734 48.401113 C 1584.103183 48.401113 1346.644984 285.859312 1346.644984 578.775863 Z M 1346.644984 578.775863 " stroke="#ffffff" stroke-width="96.766998" stroke-opacity="1" stroke-miterlimit="10"/></g><path fill="#ec4899" d="M 82.761719 231.484375 C 99.542969 214.707031 170.726562 170.726562 187.5 187.503906 C 204.28125 204.285156 160.300781 275.464844 143.523438 292.242188 C 126.742188 309.023438 99.542969 309.023438 82.761719 292.242188 C 65.984375 275.464844 65.984375 248.261719 82.761719 231.484375 " fill-opacity="1" fill-rule="nonzero"/><g clip-path="url(#fafe1165e3)"><path stroke-linecap="butt" transform="matrix(0.0810011, 0, 0, -0.0810011, 35.459339, 339.545543)" fill="none" stroke-linejoin="miter" d="M 583.972072 1334.070402 C 791.145188 1541.195293 1669.943068 2084.156679 1877.019734 1877.031788 C 2084.19285 1669.858672 1541.231465 791.109017 1334.106573 583.984126 C 1126.933458 376.81101 791.145188 376.81101 583.972072 583.984126 C 376.847181 791.109017 376.847181 1126.945511 583.972072 1334.070402 Z M 583.972072 1334.070402 " stroke="#ffffff" stroke-width="96.766998" stroke-opacity="1" stroke-miterlimit="10"/></g><path fill="#ec4899" d="M 82.34375 144.539062 C 106.070312 144.539062 187.5 163.777344 187.5 187.503906 C 187.5 211.230469 106.070312 230.464844 82.34375 230.464844 C 58.613281 230.464844 39.378906 211.230469 39.378906 187.503906 C 39.378906 163.777344 58.613281 144.539062 82.34375 144.539062 " fill-opacity="1" fill-rule="nonzero"/><g clip-path="url(#5d17c82e8b)"><path stroke-linecap="butt" transform="matrix(0.0810011, 0, 0, -0.0810011, 35.459339, 339.545543)" fill="none" stroke-linejoin="miter" d="M 578.812034 2407.454763 C 871.728586 2407.454763 1877.019734 2169.948339 1877.019734 1877.031788 C 1877.019734 1584.115236 871.728586 1346.657037 578.812034 1346.657037 C 285.847258 1346.657037 48.389059 1584.115236 48.389059 1877.031788 C 48.389059 2169.948339 285.847258 2407.454763 578.812034 2407.454763 Z M 578.812034 2407.454763 " stroke="#ffffff" stroke-width="96.766998" stroke-opacity="1" stroke-miterlimit="10"/></g><path fill="#ec4899" d="M 143.523438 82.761719 C 160.300781 99.542969 204.28125 170.726562 187.5 187.503906 C 170.726562 204.285156 99.542969 160.300781 82.761719 143.523438 C 65.984375 126.742188 65.984375 99.542969 82.761719 82.761719 C 99.542969 65.988281 126.742188 65.988281 143.523438 82.761719 " fill-opacity="1" fill-rule="nonzero"/><g clip-path="url(#95586993c6)"><path stroke-linecap="butt" transform="matrix(0.0810011, 0, 0, -0.0810011, 35.459339, 339.545543)" fill="none" stroke-linejoin="miter" d="M 1334.106573 3170.127674 C 1541.231465 2962.954558 2084.19285 2084.156679 1877.019734 1877.031788 C 1669.943068 1669.858672 791.145188 2212.868282 583.972072 2419.993173 C 376.847181 2627.166289 376.847181 2962.954558 583.972072 3170.127674 C 791.145188 3377.204341 1126.933458 3377.204341 1334.106573 3170.127674 Z M 1334.106573 3170.127674 " stroke="#ffffff" stroke-width="96.766998" stroke-opacity="1" stroke-miterlimit="10"/></g><path fill="#ec4899" d="M 230.464844 82.34375 C 230.464844 106.074219 211.230469 187.503906 187.5 187.503906 C 163.773438 187.503906 144.539062 106.074219 144.539062 82.34375 C 144.539062 58.613281 163.773438 39.378906 187.5 39.378906 C 211.230469 39.378906 230.464844 58.613281 230.464844 82.34375 " fill-opacity="1" fill-rule="nonzero"/><g clip-path="url(#6044b0feb4)"><path stroke-linecap="butt" transform="matrix(0.0810011, 0, 0, -0.0810011, 35.459339, 339.545543)" fill="none" stroke-linejoin="miter" d="M 2407.442709 3175.287712 C 2407.442709 2882.322936 2169.98451 1877.031788 1877.019734 1877.031788 C 1584.103183 1877.031788 1346.644984 2882.322936 1346.644984 3175.287712 C 1346.644984 3468.252488 1584.103183 3705.710687 1877.019734 3705.710687 C 2169.98451 3705.710687 2407.442709 3468.252488 2407.442709 3175.287712 Z M 2407.442709 3175.287712 " stroke="#ffffff" stroke-width="96.766998" stroke-opacity="1" stroke-miterlimit="10"/></g><path fill="#ec4899" d="M 187.5 162.65625 C 201.222656 162.65625 212.347656 173.78125 212.347656 187.503906 C 212.347656 201.222656 201.222656 212.347656 187.5 212.347656 C 173.78125 212.347656 162.65625 201.222656 162.65625 187.503906 C 162.65625 173.78125 173.78125 162.65625 187.5 162.65625 " fill-opacity="1" fill-rule="nonzero"/><path stroke-linecap="butt" transform="matrix(0.0810011, 0, 0, -0.0810011, 35.459339, 339.545543)" fill="none" stroke-linejoin="miter" d="M 1877.019734 2183.788815 C 2046.432945 2183.788815 2183.776762 2046.444999 2183.776762 1877.031788 C 2183.776762 1707.666801 2046.432945 1570.322985 1877.019734 1570.322985 C 1707.654747 1570.322985 1570.310931 1707.666801 1570.310931 1877.031788 C 1570.310931 2046.444999 1707.654747 2183.788815 1877.019734 2183.788815 Z M 1877.019734 2183.788815 " stroke="#ffffff" stroke-width="96.766998" stroke-opacity="1" stroke-miterlimit="10"/><path fill="#ec4899" d="M 205.070312 169.933594 C 214.773438 179.636719 214.773438 195.367188 205.070312 205.070312 C 195.367188 214.773438 179.636719 214.773438 169.933594 205.070312 C 160.230469 195.367188 160.230469 179.636719 169.933594 169.933594 C 179.636719 160.234375 195.367188 160.234375 205.070312 169.933594 " fill-opacity="1" fill-rule="nonzero"/><path stroke-linecap="butt" transform="matrix(0.0810011, 0, 0, -0.0810011, 35.459339, 339.545543)" fill="none" stroke-linejoin="miter" d="M 2093.93423 2093.946284 C 2213.724272 1974.156242 2213.724272 1779.955558 2093.93423 1660.165516 C 1974.144188 1540.375474 1779.943505 1540.375474 1660.153463 1660.165516 C 1540.363421 1779.955558 1540.363421 1974.156242 1660.153463 2093.946284 C 1779.943505 2213.688101 1974.144188 2213.688101 2093.93423 2093.946284 Z M 2093.93423 2093.946284 " stroke="#ffffff" stroke-width="96.766998" stroke-opacity="1" stroke-miterlimit="10"/><path fill="#ec4899" d="M 212.347656 187.503906 C 212.347656 201.222656 201.222656 212.347656 187.5 212.347656 C 173.78125 212.347656 162.65625 201.222656 162.65625 187.503906 C 162.65625 173.78125 173.78125 162.65625 187.5 162.65625 C 201.222656 162.65625 212.347656 173.78125 212.347656 187.503906 " fill-opacity="1" fill-rule="nonzero"/><path stroke-linecap="butt" transform="matrix(0.0810011, 0, 0, -0.0810011, 35.459339, 339.545543)" fill="none" stroke-linejoin="miter" d="M 2183.776762 1877.031788 C 2183.776762 1707.666801 2046.432945 1570.322985 1877.019734 1570.322985 C 1707.654747 1570.322985 1570.310931 1707.666801 1570.310931 1877.031788 C 1570.310931 2046.444999 1707.654747 2183.788815 1877.019734 2183.788815 C 2046.432945 2183.788815 2183.776762 2046.444999 2183.776762 1877.031788 Z M 2183.776762 1877.031788 " stroke="#ffffff" stroke-width="96.766998" stroke-opacity="1" stroke-miterlimit="10"/><path fill="#ec4899" d="M 205.070312 205.070312 C 195.367188 214.777344 179.636719 214.777344 169.933594 205.070312 C 160.230469 195.371094 160.230469 179.636719 169.933594 169.9375 C 179.636719 160.234375 195.367188 160.234375 205.070312 169.9375 C 214.773438 179.636719 214.773438 195.371094 205.070312 205.070312 " fill-opacity="1" fill-rule="nonzero"/><path stroke-linecap="butt" transform="matrix(0.0810011, 0, 0, -0.0810011, 35.459339, 339.545543)" fill="none" stroke-linejoin="miter" d="M 2093.93423 1660.165516 C 1974.144188 1540.32725 1779.943505 1540.32725 1660.153463 1660.165516 C 1540.363421 1779.907333 1540.363421 1974.156242 1660.153463 2093.898059 C 1779.943505 2213.688101 1974.144188 2213.688101 2093.93423 2093.898059 C 2213.724272 1974.156242 2213.724272 1779.907333 2093.93423 1660.165516 Z M 2093.93423 1660.165516 " stroke="#ffffff" stroke-width="96.766998" stroke-opacity="1" stroke-miterlimit="10"/><path fill="#ec4899" d="M 187.5 212.347656 C 173.78125 212.347656 162.65625 201.226562 162.65625 187.503906 C 162.65625 173.78125 173.78125 162.660156 187.5 162.660156 C 201.222656 162.660156 212.347656 173.78125 212.347656 187.503906 C 212.347656 201.226562 201.222656 212.347656 187.5 212.347656 " fill-opacity="1" fill-rule="nonzero"/><path stroke-linecap="butt" transform="matrix(0.0810011, 0, 0, -0.0810011, 35.459339, 339.545543)" fill="none" stroke-linejoin="miter" d="M 1877.019734 1570.322985 C 1707.654747 1570.322985 1570.310931 1707.618576 1570.310931 1877.031788 C 1570.310931 2046.444999 1707.654747 2183.74059 1877.019734 2183.74059 C 2046.432945 2183.74059 2183.776762 2046.444999 2183.776762 1877.031788 C 2183.776762 1707.618576 2046.432945 1570.322985 1877.019734 1570.322985 Z M 1877.019734 1570.322985 " stroke="#ffffff" stroke-width="96.766998" stroke-opacity="1" stroke-miterlimit="10"/><path fill="#ec4899" d="M 169.933594 205.070312 C 160.230469 195.371094 160.230469 179.636719 169.933594 169.9375 C 179.636719 160.234375 195.367188 160.234375 205.070312 169.9375 C 214.773438 179.636719 214.773438 195.371094 205.070312 205.070312 C 195.367188 214.777344 179.636719 214.777344 169.933594 205.070312 " fill-opacity="1" fill-rule="nonzero"/><path stroke-linecap="butt" transform="matrix(0.0810011, 0, 0, -0.0810011, 35.459339, 339.545543)" fill="none" stroke-linejoin="miter" d="M 1660.153463 1660.165516 C 1540.363421 1779.907333 1540.363421 1974.156242 1660.153463 2093.898059 C 1779.943505 2213.688101 1974.144188 2213.688101 2093.93423 2093.898059 C 2213.724272 1974.156242 2213.724272 1779.907333 2093.93423 1660.165516 C 1974.144188 1540.32725 1779.943505 1540.32725 1660.153463 1660.165516 Z M 1660.153463 1660.165516 " stroke="#ffffff" stroke-width="96.766998" stroke-opacity="1" stroke-miterlimit="10"/><path fill="#ec4899" d="M 162.65625 187.503906 C 162.65625 173.78125 173.78125 162.65625 187.5 162.65625 C 201.222656 162.65625 212.347656 173.78125 212.347656 187.503906 C 212.347656 201.222656 201.222656 212.347656 187.5 212.347656 C 173.78125 212.347656 162.65625 201.222656 162.65625 187.503906 " fill-opacity="1" fill-rule="nonzero"/><path stroke-linecap="butt" transform="matrix(0.0810011, 0, 0, -0.0810011, 35.459339, 339.545543)" fill="none" stroke-linejoin="miter" d="M 1570.310931 1877.031788 C 1570.310931 2046.444999 1707.654747 2183.788815 1877.019734 2183.788815 C 2046.432945 2183.788815 2183.776762 2046.444999 2183.776762 1877.031788 C 2183.776762 1707.666801 2046.432945 1570.322985 1877.019734 1570.322985 C 1707.654747 1570.322985 1570.310931 1707.666801 1570.310931 1877.031788 Z M 1570.310931 1877.031788 " stroke="#ffffff" stroke-width="96.766998" stroke-opacity="1" stroke-miterlimit="10"/><path fill="#ec4899" d="M 169.933594 169.933594 C 179.636719 160.234375 195.367188 160.234375 205.070312 169.933594 C 214.773438 179.636719 214.773438 195.367188 205.070312 205.070312 C 195.367188 214.773438 179.636719 214.773438 169.933594 205.070312 C 160.230469 195.367188 160.230469 179.636719 169.933594 169.933594 " fill-opacity="1" fill-rule="nonzero"/><path stroke-linecap="butt" transform="matrix(0.0810011, 0, 0, -0.0810011, 35.459339, 339.545543)" fill="none" stroke-linejoin="miter" d="M 1660.153463 2093.946284 C 1779.943505 2213.688101 1974.144188 2213.688101 2093.93423 2093.946284 C 2213.724272 1974.156242 2213.724272 1779.955558 2093.93423 1660.165516 C 1974.144188 1540.375474 1779.943505 1540.375474 1660.153463 1660.165516 C 1540.363421 1779.955558 1540.363421 1974.156242 1660.153463 2093.946284 Z M 1660.153463 2093.946284 " stroke="#ffffff" stroke-width="96.766998" stroke-opacity="1" stroke-miterlimit="10"/></svg>